<svg xmlns="http://www.w3.org/2000/svg" xmlns:xlink="http://www.w3.org/1999/xlink" width="370" zoomAndPan="magnify" viewBox="0 0 277.5 129.000003" height="172" preserveAspectRatio="xMidYMid meet" version="1.2"><defs><clipPath id="1ef4452632"><path d="M 1 14 L 108.734375 14 L 108.734375 128 L 1 128 Z M 1 14 "/></clipPath></defs><g id="c30400a72f"><g style="fill:#3084b5;fill-opacity:1;"><g transform="translate(91.667948, 45.756228)"><path style="stroke:none" d="M 12.5 -18.0625 C 13.988281 -18.0625 15.0625 -17.59375 15.71875 -16.65625 C 16.363281 -15.78125 16.6875 -14.457031 16.6875 -12.6875 L 16.6875 -12.828125 C 16.6875 -11.085938 16.363281 -9.765625 15.71875 -8.859375 C 15.0625 -7.929688 13.988281 -7.46875 12.5 -7.46875 L 5 -7.453125 L 5 -0.75 C 5 -0.40625 4.914062 -0.191406 4.75 -0.109375 C 4.59375 -0.0234375 4.472656 0.015625 4.390625 0.015625 L 2.375 0.015625 C 2.28125 0.015625 2.148438 -0.0234375 1.984375 -0.109375 C 1.828125 -0.191406 1.75 -0.40625 1.75 -0.75 L 1.75 -9.953125 C 1.75 -10.285156 1.828125 -10.492188 1.984375 -10.578125 C 2.148438 -10.660156 2.28125 -10.703125 2.375 -10.703125 L 11.921875 -10.703125 C 12.484375 -10.703125 12.875 -10.863281 13.09375 -11.1875 C 13.320312 -11.5 13.4375 -12.023438 13.4375 -12.765625 C 13.4375 -13.492188 13.320312 -14.019531 13.09375 -14.34375 C 12.875 -14.65625 12.484375 -14.8125 11.921875 -14.8125 L 2.375 -14.8125 C 2.28125 -14.8125 2.148438 -14.851562 1.984375 -14.9375 C 1.828125 -15.019531 1.75 -15.226562 1.75 -15.5625 L 1.75 -17.296875 C 1.75 -17.648438 1.828125 -17.863281 1.984375 -17.9375 C 2.148438 -18.019531 2.28125 -18.0625 2.375 -18.0625 Z M 12.5 -18.0625 "/></g></g><g style="fill:#3084b5;fill-opacity:1;"><g transform="translate(111.198544, 45.756228)"><path style="stroke:none" d="M 16.703125 -12.828125 L 16.703125 -12.6875 C 16.703125 -12.707031 16.703125 -12.71875 16.703125 -12.71875 C 16.703125 -12.726562 16.703125 -12.742188 16.703125 -12.765625 C 16.703125 -12.773438 16.703125 -12.78125 16.703125 -12.78125 C 16.703125 -12.789062 16.703125 -12.804688 16.703125 -12.828125 Z M 17.125 -0.9375 C 17.207031 -0.820312 17.234375 -0.648438 17.203125 -0.421875 C 17.160156 -0.128906 16.992188 0.015625 16.703125 0.015625 L 14.296875 0.015625 C 14.109375 0.015625 13.953125 -0.0234375 13.828125 -0.109375 C 13.785156 -0.140625 13.742188 -0.179688 13.703125 -0.234375 C 13.671875 -0.296875 13.632812 -0.359375 13.59375 -0.421875 L 9.625 -7.453125 L 5 -7.453125 L 5 -0.75 C 5 -0.40625 4.921875 -0.191406 4.765625 -0.109375 C 4.609375 -0.0234375 4.484375 0.015625 4.390625 0.015625 L 2.390625 0.015625 C 2.285156 0.015625 2.148438 -0.0234375 1.984375 -0.109375 C 1.828125 -0.191406 1.75 -0.40625 1.75 -0.75 L 1.75 -9.953125 C 1.75 -10.285156 1.828125 -10.492188 1.984375 -10.578125 C 2.148438 -10.660156 2.285156 -10.703125 2.390625 -10.703125 L 11.921875 -10.703125 C 12.484375 -10.703125 12.875 -10.863281 13.09375 -11.1875 C 13.320312 -11.5 13.4375 -12.023438 13.4375 -12.765625 C 13.4375 -13.492188 13.320312 -14.019531 13.09375 -14.34375 C 12.875 -14.65625 12.484375 -14.8125 11.921875 -14.8125 L 2.390625 -14.8125 C 2.285156 -14.8125 2.148438 -14.851562 1.984375 -14.9375 C 1.828125 -15.019531 1.75 -15.226562 1.75 -15.5625 L 1.75 -17.296875 C 1.75 -17.648438 1.828125 -17.863281 1.984375 -17.9375 C 2.148438 -18.019531 2.285156 -18.0625 2.390625 -18.0625 L 12.5 -18.0625 C 14 -18.0625 15.078125 -17.59375 15.734375 -16.65625 C 16.367188 -15.75 16.691406 -14.453125 16.703125 -12.765625 C 16.691406 -11.066406 16.367188 -9.765625 15.734375 -8.859375 C 15.179688 -8.097656 14.363281 -7.648438 13.28125 -7.515625 Z M 17.125 -0.9375 "/></g></g><g style="fill:#3084b5;fill-opacity:1;"><g transform="translate(131.277137, 45.756228)"><path style="stroke:none" d="M 16.6875 -16.46875 C 17.101562 -15.9375 17.414062 -15.21875 17.625 -14.3125 C 17.707031 -13.882812 17.773438 -13.40625 17.828125 -12.875 C 17.878906 -12.351562 17.90625 -11.796875 17.90625 -11.203125 L 17.90625 -6.859375 C 17.90625 -6.242188 17.878906 -5.671875 17.828125 -5.140625 C 17.773438 -4.617188 17.707031 -4.148438 17.625 -3.734375 C 17.414062 -2.835938 17.101562 -2.113281 16.6875 -1.5625 C 16.226562 -0.988281 15.65625 -0.582031 14.96875 -0.34375 C 14.269531 -0.101562 13.445312 0.015625 12.5 0.015625 L 7.140625 0.015625 C 6.179688 0.015625 5.363281 -0.101562 4.6875 -0.34375 C 4 -0.582031 3.429688 -0.992188 2.984375 -1.578125 C 2.546875 -2.148438 2.226562 -2.867188 2.03125 -3.734375 C 1.9375 -4.148438 1.863281 -4.617188 1.8125 -5.140625 C 1.769531 -5.671875 1.75 -6.242188 1.75 -6.859375 L 1.75 -11.203125 C 1.75 -12.460938 1.84375 -13.5 2.03125 -14.3125 C 2.226562 -15.175781 2.546875 -15.894531 2.984375 -16.46875 C 3.429688 -17.019531 4 -17.425781 4.6875 -17.6875 C 5.394531 -17.9375 6.210938 -18.0625 7.140625 -18.0625 L 12.5 -18.0625 C 13.445312 -18.0625 14.269531 -17.9375 14.96875 -17.6875 C 15.65625 -17.425781 16.226562 -17.019531 16.6875 -16.46875 Z M 14.640625 -11.578125 C 14.640625 -11.898438 14.628906 -12.195312 14.609375 -12.46875 C 14.597656 -12.738281 14.570312 -12.984375 14.53125 -13.203125 C 14.476562 -13.609375 14.351562 -13.9375 14.15625 -14.1875 C 14.007812 -14.382812 13.789062 -14.546875 13.5 -14.671875 C 13.351562 -14.710938 13.1875 -14.742188 13 -14.765625 C 12.820312 -14.796875 12.617188 -14.8125 12.390625 -14.8125 L 7.25 -14.8125 C 7.019531 -14.8125 6.8125 -14.796875 6.625 -14.765625 C 6.445312 -14.742188 6.285156 -14.710938 6.140625 -14.671875 C 5.847656 -14.546875 5.628906 -14.382812 5.484375 -14.1875 C 5.390625 -14.070312 5.3125 -13.925781 5.25 -13.75 C 5.195312 -13.582031 5.148438 -13.398438 5.109375 -13.203125 C 5.078125 -12.984375 5.050781 -12.738281 5.03125 -12.46875 C 5.007812 -12.195312 5 -11.898438 5 -11.578125 L 5 -6.46875 C 5 -6.144531 5.007812 -5.847656 5.03125 -5.578125 C 5.050781 -5.304688 5.078125 -5.0625 5.109375 -4.84375 C 5.148438 -4.65625 5.195312 -4.476562 5.25 -4.3125 C 5.3125 -4.144531 5.390625 -4 5.484375 -3.875 C 5.628906 -3.644531 5.847656 -3.484375 6.140625 -3.390625 C 6.398438 -3.296875 6.769531 -3.25 7.25 -3.25 L 12.390625 -3.25 C 12.867188 -3.25 13.238281 -3.296875 13.5 -3.390625 C 13.789062 -3.484375 14.007812 -3.644531 14.15625 -3.875 C 14.332031 -4.09375 14.457031 -4.414062 14.53125 -4.84375 C 14.570312 -5.0625 14.597656 -5.304688 14.609375 -5.578125 C 14.628906 -5.847656 14.640625 -6.144531 14.640625 -6.46875 Z M 14.640625 -11.578125 "/></g></g><g style="fill:#3084b5;fill-opacity:1;"><g transform="translate(152.035243, 45.756228)"><path style="stroke:none" d="M 16.59375 -18.0625 C 16.675781 -18.0625 16.796875 -18.015625 16.953125 -17.921875 C 17.117188 -17.835938 17.203125 -17.628906 17.203125 -17.296875 L 17.203125 -15.59375 C 17.203125 -15.238281 17.117188 -15.019531 16.953125 -14.9375 C 16.796875 -14.851562 16.675781 -14.8125 16.59375 -14.8125 L 7.28125 -14.8125 C 7.039062 -14.8125 6.828125 -14.796875 6.640625 -14.765625 C 6.453125 -14.742188 6.285156 -14.710938 6.140625 -14.671875 C 5.878906 -14.566406 5.660156 -14.40625 5.484375 -14.1875 C 5.304688 -13.914062 5.1875 -13.59375 5.125 -13.21875 C 5.039062 -12.78125 5 -12.234375 5 -11.578125 L 5 -6.484375 C 5 -5.828125 5.039062 -5.28125 5.125 -4.84375 C 5.1875 -4.445312 5.304688 -4.125 5.484375 -3.875 C 5.660156 -3.644531 5.878906 -3.484375 6.140625 -3.390625 C 6.398438 -3.296875 6.78125 -3.25 7.28125 -3.25 L 13.421875 -3.25 C 13.660156 -3.25 13.832031 -3.328125 13.9375 -3.484375 C 13.988281 -3.554688 14.035156 -3.671875 14.078125 -3.828125 C 14.117188 -3.992188 14.140625 -4.242188 14.140625 -4.578125 C 14.140625 -4.578125 14.140625 -4.679688 14.140625 -4.890625 C 14.140625 -5.097656 14.140625 -5.351562 14.140625 -5.65625 C 14.140625 -5.957031 14.132812 -6.257812 14.125 -6.5625 C 14.125 -6.875 14.125 -7.132812 14.125 -7.34375 C 14.125 -7.550781 14.125 -7.65625 14.125 -7.65625 L 8.65625 -7.65625 C 8.570312 -7.65625 8.445312 -7.691406 8.28125 -7.765625 C 8.125 -7.847656 8.046875 -8.070312 8.046875 -8.4375 L 8.046875 -10.109375 C 8.046875 -10.453125 8.125 -10.664062 8.28125 -10.75 C 8.445312 -10.84375 8.570312 -10.890625 8.65625 -10.890625 L 16.421875 -10.890625 C 16.566406 -10.890625 16.726562 -10.832031 16.90625 -10.71875 C 17.09375 -10.613281 17.1875 -10.351562 17.1875 -9.9375 L 17.1875 -4.0625 C 17.1875 -2.613281 16.972656 -1.570312 16.546875 -0.9375 C 16.109375 -0.300781 15.484375 0.015625 14.671875 0.015625 L 7.171875 0.015625 C 6.222656 0.015625 5.394531 -0.101562 4.6875 -0.34375 C 4.019531 -0.582031 3.457031 -0.988281 3 -1.5625 C 2.550781 -2.144531 2.226562 -2.859375 2.03125 -3.703125 C 1.9375 -4.140625 1.863281 -4.617188 1.8125 -5.140625 C 1.769531 -5.671875 1.75 -6.242188 1.75 -6.859375 L 1.75 -11.203125 C 1.75 -11.796875 1.769531 -12.351562 1.8125 -12.875 C 1.863281 -13.40625 1.9375 -13.882812 2.03125 -14.3125 C 2.132812 -14.75 2.265625 -15.144531 2.421875 -15.5 C 2.585938 -15.863281 2.78125 -16.1875 3 -16.46875 C 3.40625 -17.007812 3.96875 -17.414062 4.6875 -17.6875 C 5.394531 -17.9375 6.222656 -18.0625 7.171875 -18.0625 Z M 16.59375 -18.0625 "/></g></g><g style="fill:#3084b5;fill-opacity:1;"><g transform="translate(172.091908, 45.756228)"><path style="stroke:none" d="M 17.28125 -18.0625 C 17.363281 -18.0625 17.484375 -18.019531 17.640625 -17.9375 C 17.804688 -17.863281 17.890625 -17.648438 17.890625 -17.296875 L 17.890625 -2.8125 C 17.890625 -1.738281 17.734375 -1.003906 17.421875 -0.609375 C 17.117188 -0.191406 16.644531 0.015625 16 0.015625 L 14.40625 0.015625 C 14.113281 0.015625 13.863281 -0.00390625 13.65625 -0.046875 C 13.550781 -0.078125 13.445312 -0.109375 13.34375 -0.140625 C 13.25 -0.179688 13.15625 -0.226562 13.0625 -0.28125 C 12.882812 -0.382812 12.722656 -0.546875 12.578125 -0.765625 C 12.503906 -0.867188 12.421875 -0.984375 12.328125 -1.109375 C 12.242188 -1.242188 12.160156 -1.398438 12.078125 -1.578125 L 5.125 -13.90625 C 5.113281 -13.925781 5.097656 -13.941406 5.078125 -13.953125 C 5.066406 -13.960938 5.0625 -13.96875 5.0625 -13.96875 L 4.953125 -13.96875 C 4.953125 -13.96875 4.953125 -13.960938 4.953125 -13.953125 C 4.953125 -13.941406 4.953125 -13.929688 4.953125 -13.921875 L 4.953125 -0.75 C 4.953125 -0.40625 4.875 -0.191406 4.71875 -0.109375 C 4.570312 -0.0234375 4.445312 0.015625 4.34375 0.015625 L 2.390625 0.015625 C 2.285156 0.015625 2.148438 -0.0234375 1.984375 -0.109375 C 1.828125 -0.191406 1.75 -0.40625 1.75 -0.75 L 1.75 -15.234375 C 1.75 -16.304688 1.90625 -17.046875 2.21875 -17.453125 C 2.539062 -17.859375 3.015625 -18.0625 3.640625 -18.0625 L 5.28125 -18.0625 C 5.425781 -18.0625 5.5625 -18.054688 5.6875 -18.046875 C 5.820312 -18.046875 5.941406 -18.035156 6.046875 -18.015625 C 6.285156 -17.972656 6.492188 -17.882812 6.671875 -17.75 C 6.816406 -17.65625 6.96875 -17.488281 7.125 -17.25 C 7.195312 -17.144531 7.269531 -17.023438 7.34375 -16.890625 C 7.425781 -16.765625 7.515625 -16.625 7.609375 -16.46875 L 14.53125 -4.140625 C 14.550781 -4.097656 14.570312 -4.078125 14.59375 -4.078125 L 14.703125 -4.078125 C 14.703125 -4.085938 14.703125 -4.09375 14.703125 -4.09375 C 14.703125 -4.09375 14.703125 -4.101562 14.703125 -4.125 L 14.703125 -17.296875 C 14.703125 -17.648438 14.78125 -17.863281 14.9375 -17.9375 C 15.09375 -18.019531 15.222656 -18.0625 15.328125 -18.0625 Z M 17.28125 -18.0625 "/></g></g><g style="fill:#3084b5;fill-opacity:1;"><g transform="translate(192.828096, 45.756228)"><path style="stroke:none" d="M 16.6875 -16.46875 C 17.101562 -15.9375 17.414062 -15.21875 17.625 -14.3125 C 17.707031 -13.882812 17.773438 -13.40625 17.828125 -12.875 C 17.878906 -12.351562 17.90625 -11.796875 17.90625 -11.203125 L 17.90625 -6.859375 C 17.90625 -6.242188 17.878906 -5.671875 17.828125 -5.140625 C 17.773438 -4.617188 17.707031 -4.148438 17.625 -3.734375 C 17.414062 -2.835938 17.101562 -2.113281 16.6875 -1.5625 C 16.226562 -0.988281 15.65625 -0.582031 14.96875 -0.34375 C 14.269531 -0.101562 13.445312 0.015625 12.5 0.015625 L 7.140625 0.015625 C 6.179688 0.015625 5.363281 -0.101562 4.6875 -0.34375 C 4 -0.582031 3.429688 -0.992188 2.984375 -1.578125 C 2.546875 -2.148438 2.226562 -2.867188 2.03125 -3.734375 C 1.9375 -4.148438 1.863281 -4.617188 1.8125 -5.140625 C 1.769531 -5.671875 1.75 -6.242188 1.75 -6.859375 L 1.75 -11.203125 C 1.75 -12.460938 1.84375 -13.5 2.03125 -14.3125 C 2.226562 -15.175781 2.546875 -15.894531 2.984375 -16.46875 C 3.429688 -17.019531 4 -17.425781 4.6875 -17.6875 C 5.394531 -17.9375 6.210938 -18.0625 7.140625 -18.0625 L 12.5 -18.0625 C 13.445312 -18.0625 14.269531 -17.9375 14.96875 -17.6875 C 15.65625 -17.425781 16.226562 -17.019531 16.6875 -16.46875 Z M 14.640625 -11.578125 C 14.640625 -11.898438 14.628906 -12.195312 14.609375 -12.46875 C 14.597656 -12.738281 14.570312 -12.984375 14.53125 -13.203125 C 14.476562 -13.609375 14.351562 -13.9375 14.15625 -14.1875 C 14.007812 -14.382812 13.789062 -14.546875 13.5 -14.671875 C 13.351562 -14.710938 13.1875 -14.742188 13 -14.765625 C 12.820312 -14.796875 12.617188 -14.8125 12.390625 -14.8125 L 7.25 -14.8125 C 7.019531 -14.8125 6.8125 -14.796875 6.625 -14.765625 C 6.445312 -14.742188 6.285156 -14.710938 6.140625 -14.671875 C 5.847656 -14.546875 5.628906 -14.382812 5.484375 -14.1875 C 5.390625 -14.070312 5.3125 -13.925781 5.25 -13.75 C 5.195312 -13.582031 5.148438 -13.398438 5.109375 -13.203125 C 5.078125 -12.984375 5.050781 -12.738281 5.03125 -12.46875 C 5.007812 -12.195312 5 -11.898438 5 -11.578125 L 5 -6.46875 C 5 -6.144531 5.007812 -5.847656 5.03125 -5.578125 C 5.050781 -5.304688 5.078125 -5.0625 5.109375 -4.84375 C 5.148438 -4.65625 5.195312 -4.476562 5.25 -4.3125 C 5.3125 -4.144531 5.390625 -4 5.484375 -3.875 C 5.628906 -3.644531 5.847656 -3.484375 6.140625 -3.390625 C 6.398438 -3.296875 6.769531 -3.25 7.25 -3.25 L 12.390625 -3.25 C 12.867188 -3.25 13.238281 -3.296875 13.5 -3.390625 C 13.789062 -3.484375 14.007812 -3.644531 14.15625 -3.875 C 14.332031 -4.09375 14.457031 -4.414062 14.53125 -4.84375 C 14.570312 -5.0625 14.597656 -5.304688 14.609375 -5.578125 C 14.628906 -5.847656 14.640625 -6.144531 14.640625 -6.46875 Z M 14.640625 -11.578125 "/></g></g><g style="fill:#3084b5;fill-opacity:1;"><g transform="translate(213.586202, 45.756228)"><path style="stroke:none" d="M 12.34375 -10.78125 C 13.476562 -10.78125 14.347656 -10.378906 14.953125 -9.578125 C 15.523438 -8.785156 15.8125 -7.675781 15.8125 -6.25 L 15.8125 -4.3125 C 15.8125 -3.0625 15.53125 -2.035156 14.96875 -1.234375 C 14.40625 -0.410156 13.515625 0 12.296875 0 L 2.40625 0 C 2.3125 0 2.179688 -0.0351562 2.015625 -0.109375 C 1.859375 -0.191406 1.78125 -0.40625 1.78125 -0.75 L 1.78125 -2.5 C 1.78125 -2.832031 1.859375 -3.039062 2.015625 -3.125 C 2.179688 -3.207031 2.3125 -3.25 2.40625 -3.25 L 11.765625 -3.25 C 11.960938 -3.25 12.097656 -3.28125 12.171875 -3.34375 C 12.253906 -3.40625 12.316406 -3.46875 12.359375 -3.53125 C 12.492188 -3.75 12.5625 -4.054688 12.5625 -4.453125 L 12.5625 -6.328125 C 12.5625 -6.867188 12.472656 -7.207031 12.296875 -7.34375 C 12.117188 -7.476562 11.953125 -7.546875 11.796875 -7.546875 L 5.21875 -7.546875 C 4.757812 -7.546875 4.289062 -7.601562 3.8125 -7.71875 C 3.34375 -7.832031 2.941406 -8.117188 2.609375 -8.578125 C 2.035156 -9.378906 1.75 -10.546875 1.75 -12.078125 L 1.75 -13.75 C 1.75 -15.03125 2.035156 -16.066406 2.609375 -16.859375 C 3.179688 -17.660156 4.066406 -18.0625 5.265625 -18.0625 L 14.703125 -18.0625 C 14.796875 -18.0625 14.921875 -18.019531 15.078125 -17.9375 C 15.242188 -17.863281 15.328125 -17.65625 15.328125 -17.3125 L 15.328125 -15.5625 C 15.328125 -15.226562 15.242188 -15.019531 15.078125 -14.9375 C 14.921875 -14.851562 14.796875 -14.8125 14.703125 -14.8125 L 5.78125 -14.8125 C 5.59375 -14.8125 5.457031 -14.78125 5.375 -14.71875 C 5.300781 -14.664062 5.242188 -14.601562 5.203125 -14.53125 C 5.078125 -14.300781 5.015625 -13.992188 5.015625 -13.609375 L 5.015625 -11.984375 C 5.015625 -11.453125 5.097656 -11.117188 5.265625 -10.984375 C 5.441406 -10.847656 5.609375 -10.78125 5.765625 -10.78125 Z M 12.34375 -10.78125 "/></g></g><g style="fill:#e3a72f;fill-opacity:1;"><g transform="translate(232.246165, 45.756228)"><path style="stroke:none" d="M 13.5 -16.03125 L 19.65625 -0.828125 C 19.75 -0.628906 19.773438 -0.457031 19.734375 -0.3125 C 19.710938 -0.25 19.671875 -0.175781 19.609375 -0.09375 C 19.546875 -0.0195312 19.425781 0.015625 19.25 0.015625 L 16.90625 0.015625 C 16.59375 0.015625 16.378906 -0.140625 16.265625 -0.453125 L 10.828125 -14.03125 C 10.816406 -14.0625 10.8125 -14.078125 10.8125 -14.078125 L 10.71875 -14.078125 C 10.71875 -14.078125 10.710938 -14.070312 10.703125 -14.0625 C 10.703125 -14.050781 10.691406 -14.035156 10.671875 -14.015625 L 7.875 -6.90625 L 10.59375 -6.90625 C 10.894531 -6.90625 11.101562 -6.757812 11.21875 -6.46875 L 12.015625 -4.515625 C 12.085938 -4.265625 12.054688 -4.050781 11.921875 -3.875 C 11.804688 -3.675781 11.617188 -3.578125 11.359375 -3.578125 L 6.546875 -3.578125 L 5.3125 -0.4375 C 5.1875 -0.132812 4.976562 0.015625 4.6875 0.015625 L 2.28125 0.015625 C 2.101562 0.015625 1.976562 -0.0195312 1.90625 -0.09375 C 1.84375 -0.175781 1.804688 -0.25 1.796875 -0.3125 C 1.753906 -0.4375 1.769531 -0.609375 1.84375 -0.828125 L 7.953125 -16.03125 C 8.242188 -16.800781 8.566406 -17.332031 8.921875 -17.625 C 8.960938 -17.65625 9.007812 -17.691406 9.0625 -17.734375 C 9.125 -17.773438 9.1875 -17.8125 9.25 -17.84375 C 9.6875 -18.15625 10.191406 -18.3125 10.765625 -18.3125 C 11.359375 -18.3125 11.894531 -18.125 12.375 -17.75 C 12.863281 -17.382812 13.195312 -16.921875 13.375 -16.359375 C 13.40625 -16.304688 13.429688 -16.25 13.453125 -16.1875 C 13.472656 -16.132812 13.488281 -16.082031 13.5 -16.03125 Z M 13.5 -16.03125 "/></g></g><g style="fill:#e3a72f;fill-opacity:1;"><g transform="translate(254.867459, 45.756228)"><path style="stroke:none" d="M 4.390625 -18.0625 C 4.472656 -18.0625 4.59375 -18.015625 4.75 -17.921875 C 4.914062 -17.835938 5 -17.628906 5 -17.296875 L 5 -0.75 C 5 -0.40625 4.914062 -0.191406 4.75 -0.109375 C 4.59375 -0.0234375 4.472656 0.015625 4.390625 0.015625 L 2.375 0.015625 C 2.28125 0.015625 2.148438 -0.0234375 1.984375 -0.109375 C 1.828125 -0.191406 1.75 -0.40625 1.75 -0.75 L 1.75 -17.296875 C 1.75 -17.628906 1.828125 -17.835938 1.984375 -17.921875 C 2.148438 -18.015625 2.28125 -18.0625 2.375 -18.0625 Z M 4.390625 -18.0625 "/></g></g><g style="fill:#ff00ff;fill-opacity:1;"><g transform="translate(65.383782, 61.926805)"><path style="stroke:none" d="M 2.703125 0.09375 C 2.316406 0.09375 1.96875 0.0390625 1.65625 -0.0625 C 1.351562 -0.175781 1.097656 -0.316406 0.890625 -0.484375 C 0.679688 -0.660156 0.523438 -0.851562 0.421875 -1.0625 L 0.828125 -1.546875 L 0.921875 -1.546875 C 1.304688 -0.890625 1.898438 -0.5625 2.703125 -0.5625 C 3.171875 -0.5625 3.519531 -0.660156 3.75 -0.859375 C 3.976562 -1.054688 4.09375 -1.328125 4.09375 -1.671875 C 4.09375 -1.878906 4.054688 -2.050781 3.984375 -2.1875 C 3.910156 -2.332031 3.785156 -2.453125 3.609375 -2.546875 C 3.429688 -2.648438 3.195312 -2.738281 2.90625 -2.8125 L 2.1875 -3 C 1.644531 -3.125 1.242188 -3.328125 0.984375 -3.609375 C 0.734375 -3.898438 0.609375 -4.265625 0.609375 -4.703125 C 0.609375 -5.003906 0.6875 -5.273438 0.84375 -5.515625 C 1 -5.765625 1.226562 -5.957031 1.53125 -6.09375 C 1.84375 -6.226562 2.207031 -6.296875 2.625 -6.296875 C 3.09375 -6.296875 3.488281 -6.226562 3.8125 -6.09375 C 4.132812 -5.957031 4.390625 -5.757812 4.578125 -5.5 L 4.21875 -5.015625 L 4.125 -5.015625 C 3.945312 -5.234375 3.734375 -5.394531 3.484375 -5.5 C 3.242188 -5.601562 2.957031 -5.65625 2.625 -5.65625 C 2.195312 -5.65625 1.875 -5.570312 1.65625 -5.40625 C 1.4375 -5.238281 1.328125 -5.007812 1.328125 -4.71875 C 1.328125 -4.4375 1.40625 -4.210938 1.5625 -4.046875 C 1.726562 -3.878906 2.003906 -3.75 2.390625 -3.65625 L 3.125 -3.484375 C 3.726562 -3.335938 4.164062 -3.117188 4.4375 -2.828125 C 4.707031 -2.535156 4.84375 -2.160156 4.84375 -1.703125 C 4.84375 -1.359375 4.765625 -1.050781 4.609375 -0.78125 C 4.453125 -0.507812 4.210938 -0.296875 3.890625 -0.140625 C 3.566406 0.015625 3.171875 0.09375 2.703125 0.09375 Z M 2.703125 0.09375 "/></g></g><g style="fill:#ff00ff;fill-opacity:1;"><g transform="translate(73.912119, 61.926805)"><path style="stroke:none" d="M 4.84375 -6.203125 L 4.84375 -5.578125 L 2.890625 -5.578125 L 2.890625 0 L 2.171875 0 L 2.171875 -5.578125 L 0.234375 -5.578125 L 0.234375 -6.203125 Z M 4.84375 -6.203125 "/></g></g><g style="fill:#ff00ff;fill-opacity:1;"><g transform="translate(81.711463, 61.926805)"><path style="stroke:none" d="M 5.578125 0 L 4.796875 0 L 4.234375 -1.703125 L 1.59375 -1.703125 L 1.015625 0 L 0.25 0 L 2.40625 -6.203125 L 3.421875 -6.203125 Z M 2.859375 -5.453125 L 1.796875 -2.3125 L 4.015625 -2.3125 L 2.953125 -5.453125 Z M 2.859375 -5.453125 "/></g></g><g style="fill:#ff00ff;fill-opacity:1;"><g transform="translate(90.345759, 61.926805)"><path style="stroke:none" d="M 3.03125 0 L 2.296875 0 L 2.296875 -2.4375 L 0.15625 -6.203125 L 0.953125 -6.203125 L 2.625 -3.296875 L 2.734375 -3.296875 L 4.390625 -6.203125 L 5.171875 -6.203125 L 3.03125 -2.4375 Z M 3.03125 0 "/></g></g><g style="fill:#ff00ff;fill-opacity:1;"><g transform="translate(98.963101, 61.926805)"><path style="stroke:none" d=""/></g></g><g style="fill:#ff00ff;fill-opacity:1;"><g transform="translate(104.3805, 61.926805)"><path style="stroke:none" d="M 5.578125 0 L 4.796875 0 L 4.234375 -1.703125 L 1.59375 -1.703125 L 1.015625 0 L 0.25 0 L 2.40625 -6.203125 L 3.421875 -6.203125 Z M 2.859375 -5.453125 L 1.796875 -2.3125 L 4.015625 -2.3125 L 2.953125 -5.453125 Z M 2.859375 -5.453125 "/></g></g><g style="fill:#ff00ff;fill-opacity:1;"><g transform="translate(113.493727, 61.926805)"><path style="stroke:none" d="M 4.890625 -3.6875 L 4.890625 -6.203125 L 5.609375 -6.203125 L 5.609375 0 L 4.890625 0 L 4.890625 -3.0625 L 1.671875 -3.0625 L 1.671875 0 L 0.9375 0 L 0.9375 -6.203125 L 1.671875 -6.203125 L 1.671875 -3.6875 Z M 4.890625 -3.6875 "/></g></g><g style="fill:#ff00ff;fill-opacity:1;"><g transform="translate(123.335949, 61.926805)"><path style="stroke:none" d="M 1.671875 -2.921875 L 1.671875 -0.609375 L 4.828125 -0.609375 L 4.828125 0 L 0.9375 0 L 0.9375 -6.203125 L 4.765625 -6.203125 L 4.765625 -5.59375 L 1.671875 -5.59375 L 1.671875 -3.53125 L 4.390625 -3.53125 L 4.390625 -2.921875 Z M 1.671875 -2.921875 "/></g></g><g style="fill:#ff00ff;fill-opacity:1;"><g transform="translate(131.860048, 61.926805)"><path style="stroke:none" d="M 5.578125 0 L 4.796875 0 L 4.234375 -1.703125 L 1.59375 -1.703125 L 1.015625 0 L 0.25 0 L 2.40625 -6.203125 L 3.421875 -6.203125 Z M 2.859375 -5.453125 L 1.796875 -2.3125 L 4.015625 -2.3125 L 2.953125 -5.453125 Z M 2.859375 -5.453125 "/></g></g><g style="fill:#ff00ff;fill-opacity:1;"><g transform="translate(140.973275, 61.926805)"><path style="stroke:none" d="M 2.9375 -6.203125 C 3.570312 -6.203125 4.113281 -6.085938 4.5625 -5.859375 C 5.007812 -5.640625 5.351562 -5.296875 5.59375 -4.828125 C 5.84375 -4.367188 5.96875 -3.789062 5.96875 -3.09375 C 5.96875 -2.40625 5.84375 -1.828125 5.59375 -1.359375 C 5.351562 -0.898438 5.007812 -0.554688 4.5625 -0.328125 C 4.113281 -0.109375 3.570312 0 2.9375 0 L 0.9375 0 L 0.9375 -6.203125 Z M 2.875 -0.625 C 3.382812 -0.625 3.8125 -0.703125 4.15625 -0.859375 C 4.5 -1.023438 4.753906 -1.289062 4.921875 -1.65625 C 5.097656 -2.019531 5.1875 -2.5 5.1875 -3.09375 C 5.1875 -3.707031 5.097656 -4.191406 4.921875 -4.546875 C 4.753906 -4.910156 4.5 -5.171875 4.15625 -5.328125 C 3.8125 -5.492188 3.382812 -5.578125 2.875 -5.578125 L 1.671875 -5.578125 L 1.671875 -0.625 Z M 2.875 -0.625 "/></g></g><g style="fill:#ff00ff;fill-opacity:1;"><g transform="translate(150.849403, 61.926805)"><path style="stroke:none" d=""/></g></g><g style="fill:#ff00ff;fill-opacity:1;"><g transform="translate(156.266802, 61.926805)"><path style="stroke:none" d="M 3.40625 0.09375 C 2.863281 0.09375 2.382812 -0.0195312 1.96875 -0.25 C 1.550781 -0.488281 1.222656 -0.84375 0.984375 -1.3125 C 0.742188 -1.789062 0.625 -2.382812 0.625 -3.09375 C 0.625 -3.8125 0.742188 -4.40625 0.984375 -4.875 C 1.222656 -5.351562 1.550781 -5.707031 1.96875 -5.9375 C 2.382812 -6.175781 2.863281 -6.296875 3.40625 -6.296875 C 3.9375 -6.296875 4.410156 -6.175781 4.828125 -5.9375 C 5.253906 -5.707031 5.585938 -5.351562 5.828125 -4.875 C 6.066406 -4.40625 6.1875 -3.8125 6.1875 -3.09375 C 6.1875 -2.382812 6.066406 -1.789062 5.828125 -1.3125 C 5.585938 -0.84375 5.253906 -0.488281 4.828125 -0.25 C 4.410156 -0.0195312 3.9375 0.09375 3.40625 0.09375 Z M 3.40625 -0.578125 C 4.050781 -0.578125 4.546875 -0.78125 4.890625 -1.1875 C 5.234375 -1.59375 5.40625 -2.226562 5.40625 -3.09375 C 5.40625 -3.96875 5.234375 -4.601562 4.890625 -5 C 4.546875 -5.40625 4.050781 -5.609375 3.40625 -5.609375 C 2.070312 -5.609375 1.40625 -4.769531 1.40625 -3.09375 C 1.40625 -1.414062 2.070312 -0.578125 3.40625 -0.578125 Z M 3.40625 -0.578125 "/></g></g><g style="fill:#ff00ff;fill-opacity:1;"><g transform="translate(166.354847, 61.926805)"><path style="stroke:none" d="M 4.578125 -6.203125 L 4.578125 -5.59375 L 1.671875 -5.59375 L 1.671875 -3.34375 L 4.28125 -3.34375 L 4.28125 -2.734375 L 1.671875 -2.734375 L 1.671875 0 L 0.9375 0 L 0.9375 -6.203125 Z M 4.578125 -6.203125 "/></g></g><g style="fill:#ff00ff;fill-opacity:1;"><g transform="translate(174.556833, 61.926805)"><path style="stroke:none" d=""/></g></g><g style="fill:#ff00ff;fill-opacity:1;"><g transform="translate(179.974231, 61.926805)"><path style="stroke:none" d="M 3.03125 0 L 2.296875 0 L 2.296875 -2.4375 L 0.15625 -6.203125 L 0.953125 -6.203125 L 2.625 -3.296875 L 2.734375 -3.296875 L 4.390625 -6.203125 L 5.171875 -6.203125 L 3.03125 -2.4375 Z M 3.03125 0 "/></g></g><g style="fill:#ff00ff;fill-opacity:1;"><g transform="translate(188.256745, 61.926805)"><path style="stroke:none" d="M 3.40625 0.09375 C 2.863281 0.09375 2.382812 -0.0195312 1.96875 -0.25 C 1.550781 -0.488281 1.222656 -0.84375 0.984375 -1.3125 C 0.742188 -1.789062 0.625 -2.382812 0.625 -3.09375 C 0.625 -3.8125 0.742188 -4.40625 0.984375 -4.875 C 1.222656 -5.351562 1.550781 -5.707031 1.96875 -5.9375 C 2.382812 -6.175781 2.863281 -6.296875 3.40625 -6.296875 C 3.9375 -6.296875 4.410156 -6.175781 4.828125 -5.9375 C 5.253906 -5.707031 5.585938 -5.351562 5.828125 -4.875 C 6.066406 -4.40625 6.1875 -3.8125 6.1875 -3.09375 C 6.1875 -2.382812 6.066406 -1.789062 5.828125 -1.3125 C 5.585938 -0.84375 5.253906 -0.488281 4.828125 -0.25 C 4.410156 -0.0195312 3.9375 0.09375 3.40625 0.09375 Z M 3.40625 -0.578125 C 4.050781 -0.578125 4.546875 -0.78125 4.890625 -1.1875 C 5.234375 -1.59375 5.40625 -2.226562 5.40625 -3.09375 C 5.40625 -3.96875 5.234375 -4.601562 4.890625 -5 C 4.546875 -5.40625 4.050781 -5.609375 3.40625 -5.609375 C 2.070312 -5.609375 1.40625 -4.769531 1.40625 -3.09375 C 1.40625 -1.414062 2.070312 -0.578125 3.40625 -0.578125 Z M 3.40625 -0.578125 "/></g></g><g style="fill:#ff00ff;fill-opacity:1;"><g transform="translate(198.34479, 61.926805)"><path style="stroke:none" d="M 3.203125 0.09375 C 2.441406 0.09375 1.863281 -0.0976562 1.46875 -0.484375 C 1.082031 -0.867188 0.890625 -1.441406 0.890625 -2.203125 L 0.890625 -6.203125 L 1.609375 -6.203125 L 1.609375 -2.21875 C 1.609375 -1.675781 1.738281 -1.265625 2 -0.984375 C 2.257812 -0.710938 2.660156 -0.578125 3.203125 -0.578125 C 4.253906 -0.578125 4.78125 -1.125 4.78125 -2.21875 L 4.78125 -6.203125 L 5.515625 -6.203125 L 5.515625 -2.203125 C 5.515625 -1.441406 5.316406 -0.867188 4.921875 -0.484375 C 4.535156 -0.0976562 3.960938 0.09375 3.203125 0.09375 Z M 3.203125 0.09375 "/></g></g><g style="fill:#ff00ff;fill-opacity:1;"><g transform="translate(208.021716, 61.926805)"><path style="stroke:none" d="M 0.9375 0 L 0.9375 -6.203125 L 3.1875 -6.203125 C 3.601562 -6.203125 3.953125 -6.132812 4.234375 -6 C 4.515625 -5.863281 4.726562 -5.671875 4.875 -5.421875 C 5.019531 -5.171875 5.09375 -4.875 5.09375 -4.53125 C 5.09375 -4.144531 4.992188 -3.828125 4.796875 -3.578125 C 4.609375 -3.328125 4.304688 -3.140625 3.890625 -3.015625 L 3.890625 -2.921875 C 4.097656 -2.835938 4.265625 -2.710938 4.390625 -2.546875 C 4.515625 -2.378906 4.632812 -2.128906 4.75 -1.796875 L 5.3125 0 L 4.5625 0 L 3.9375 -1.890625 C 3.863281 -2.117188 3.78125 -2.296875 3.6875 -2.421875 C 3.59375 -2.546875 3.472656 -2.632812 3.328125 -2.6875 C 3.179688 -2.75 2.992188 -2.78125 2.765625 -2.78125 L 1.671875 -2.78125 L 1.671875 0 Z M 3.171875 -3.40625 C 3.554688 -3.40625 3.84375 -3.492188 4.03125 -3.671875 C 4.226562 -3.847656 4.328125 -4.125 4.328125 -4.5 C 4.328125 -4.863281 4.226562 -5.132812 4.03125 -5.3125 C 3.84375 -5.488281 3.554688 -5.578125 3.171875 -5.578125 L 1.671875 -5.578125 L 1.671875 -3.40625 Z M 3.171875 -3.40625 "/></g></g><g style="fill:#ff00ff;fill-opacity:1;"><g transform="translate(217.050177, 61.926805)"><path style="stroke:none" d=""/></g></g><g style="fill:#ff00ff;fill-opacity:1;"><g transform="translate(222.467576, 61.926805)"><path style="stroke:none" d="M 4.890625 -3.6875 L 4.890625 -6.203125 L 5.609375 -6.203125 L 5.609375 0 L 4.890625 0 L 4.890625 -3.0625 L 1.671875 -3.0625 L 1.671875 0 L 0.9375 0 L 0.9375 -6.203125 L 1.671875 -6.203125 L 1.671875 -3.6875 Z M 4.890625 -3.6875 "/></g></g><g style="fill:#ff00ff;fill-opacity:1;"><g transform="translate(232.309797, 61.926805)"><path style="stroke:none" d="M 1.671875 -2.921875 L 1.671875 -0.609375 L 4.828125 -0.609375 L 4.828125 0 L 0.9375 0 L 0.9375 -6.203125 L 4.765625 -6.203125 L 4.765625 -5.59375 L 1.671875 -5.59375 L 1.671875 -3.53125 L 4.390625 -3.53125 L 4.390625 -2.921875 Z M 1.671875 -2.921875 "/></g></g><g style="fill:#ff00ff;fill-opacity:1;"><g transform="translate(240.833896, 61.926805)"><path style="stroke:none" d="M 5.578125 0 L 4.796875 0 L 4.234375 -1.703125 L 1.59375 -1.703125 L 1.015625 0 L 0.25 0 L 2.40625 -6.203125 L 3.421875 -6.203125 Z M 2.859375 -5.453125 L 1.796875 -2.3125 L 4.015625 -2.3125 L 2.953125 -5.453125 Z M 2.859375 -5.453125 "/></g></g><g style="fill:#ff00ff;fill-opacity:1;"><g transform="translate(249.947124, 61.926805)"><path style="stroke:none" d="M 1.671875 -6.203125 L 1.671875 -0.609375 L 4.65625 -0.609375 L 4.65625 0 L 0.9375 0 L 0.9375 -6.203125 Z M 1.671875 -6.203125 "/></g></g><g style="fill:#ff00ff;fill-opacity:1;"><g transform="translate(257.246355, 61.926805)"><path style="stroke:none" d="M 4.84375 -6.203125 L 4.84375 -5.578125 L 2.890625 -5.578125 L 2.890625 0 L 2.171875 0 L 2.171875 -5.578125 L 0.234375 -5.578125 L 0.234375 -6.203125 Z M 4.84375 -6.203125 "/></g></g><g style="fill:#ff00ff;fill-opacity:1;"><g transform="translate(265.596671, 61.926805)"><path style="stroke:none" d="M 4.890625 -3.6875 L 4.890625 -6.203125 L 5.609375 -6.203125 L 5.609375 0 L 4.890625 0 L 4.890625 -3.0625 L 1.671875 -3.0625 L 1.671875 0 L 0.9375 0 L 0.9375 -6.203125 L 1.671875 -6.203125 L 1.671875 -3.6875 Z M 4.890625 -3.6875 "/></g></g><g style="fill:#00ffff;fill-opacity:1;"><g transform="translate(65.058283, 61.926805)"><path style="stroke:none" d="M 2.703125 0.09375 C 2.316406 0.09375 1.96875 0.0390625 1.65625 -0.0625 C 1.351562 -0.175781 1.097656 -0.316406 0.890625 -0.484375 C 0.679688 -0.660156 0.523438 -0.851562 0.421875 -1.0625 L 0.828125 -1.546875 L 0.921875 -1.546875 C 1.304688 -0.890625 1.898438 -0.5625 2.703125 -0.5625 C 3.171875 -0.5625 3.519531 -0.660156 3.75 -0.859375 C 3.976562 -1.054688 4.09375 -1.328125 4.09375 -1.671875 C 4.09375 -1.878906 4.054688 -2.050781 3.984375 -2.1875 C 3.910156 -2.332031 3.785156 -2.453125 3.609375 -2.546875 C 3.429688 -2.648438 3.195312 -2.738281 2.90625 -2.8125 L 2.1875 -3 C 1.644531 -3.125 1.242188 -3.328125 0.984375 -3.609375 C 0.734375 -3.898438 0.609375 -4.265625 0.609375 -4.703125 C 0.609375 -5.003906 0.6875 -5.273438 0.84375 -5.515625 C 1 -5.765625 1.226562 -5.957031 1.53125 -6.09375 C 1.84375 -6.226562 2.207031 -6.296875 2.625 -6.296875 C 3.09375 -6.296875 3.488281 -6.226562 3.8125 -6.09375 C 4.132812 -5.957031 4.390625 -5.757812 4.578125 -5.5 L 4.21875 -5.015625 L 4.125 -5.015625 C 3.945312 -5.234375 3.734375 -5.394531 3.484375 -5.5 C 3.242188 -5.601562 2.957031 -5.65625 2.625 -5.65625 C 2.195312 -5.65625 1.875 -5.570312 1.65625 -5.40625 C 1.4375 -5.238281 1.328125 -5.007812 1.328125 -4.71875 C 1.328125 -4.4375 1.40625 -4.210938 1.5625 -4.046875 C 1.726562 -3.878906 2.003906 -3.75 2.390625 -3.65625 L 3.125 -3.484375 C 3.726562 -3.335938 4.164062 -3.117188 4.4375 -2.828125 C 4.707031 -2.535156 4.84375 -2.160156 4.84375 -1.703125 C 4.84375 -1.359375 4.765625 -1.050781 4.609375 -0.78125 C 4.453125 -0.507812 4.210938 -0.296875 3.890625 -0.140625 C 3.566406 0.015625 3.171875 0.09375 2.703125 0.09375 Z M 2.703125 0.09375 "/></g></g><g style="fill:#00ffff;fill-opacity:1;"><g transform="translate(73.58662, 61.926805)"><path style="stroke:none" d="M 4.84375 -6.203125 L 4.84375 -5.578125 L 2.890625 -5.578125 L 2.890625 0 L 2.171875 0 L 2.171875 -5.578125 L 0.234375 -5.578125 L 0.234375 -6.203125 Z M 4.84375 -6.203125 "/></g></g><g style="fill:#00ffff;fill-opacity:1;"><g transform="translate(81.385964, 61.926805)"><path style="stroke:none" d="M 5.578125 0 L 4.796875 0 L 4.234375 -1.703125 L 1.59375 -1.703125 L 1.015625 0 L 0.25 0 L 2.40625 -6.203125 L 3.421875 -6.203125 Z M 2.859375 -5.453125 L 1.796875 -2.3125 L 4.015625 -2.3125 L 2.953125 -5.453125 Z M 2.859375 -5.453125 "/></g></g><g style="fill:#00ffff;fill-opacity:1;"><g transform="translate(90.020259, 61.926805)"><path style="stroke:none" d="M 3.03125 0 L 2.296875 0 L 2.296875 -2.4375 L 0.15625 -6.203125 L 0.953125 -6.203125 L 2.625 -3.296875 L 2.734375 -3.296875 L 4.390625 -6.203125 L 5.171875 -6.203125 L 3.03125 -2.4375 Z M 3.03125 0 "/></g></g><g style="fill:#00ffff;fill-opacity:1;"><g transform="translate(98.637602, 61.926805)"><path style="stroke:none" d=""/></g></g><g style="fill:#00ffff;fill-opacity:1;"><g transform="translate(104.055001, 61.926805)"><path style="stroke:none" d="M 5.578125 0 L 4.796875 0 L 4.234375 -1.703125 L 1.59375 -1.703125 L 1.015625 0 L 0.25 0 L 2.40625 -6.203125 L 3.421875 -6.203125 Z M 2.859375 -5.453125 L 1.796875 -2.3125 L 4.015625 -2.3125 L 2.953125 -5.453125 Z M 2.859375 -5.453125 "/></g></g><g style="fill:#00ffff;fill-opacity:1;"><g transform="translate(113.168228, 61.926805)"><path style="stroke:none" d="M 4.890625 -3.6875 L 4.890625 -6.203125 L 5.609375 -6.203125 L 5.609375 0 L 4.890625 0 L 4.890625 -3.0625 L 1.671875 -3.0625 L 1.671875 0 L 0.9375 0 L 0.9375 -6.203125 L 1.671875 -6.203125 L 1.671875 -3.6875 Z M 4.890625 -3.6875 "/></g></g><g style="fill:#00ffff;fill-opacity:1;"><g transform="translate(123.01045, 61.926805)"><path style="stroke:none" d="M 1.671875 -2.921875 L 1.671875 -0.609375 L 4.828125 -0.609375 L 4.828125 0 L 0.9375 0 L 0.9375 -6.203125 L 4.765625 -6.203125 L 4.765625 -5.59375 L 1.671875 -5.59375 L 1.671875 -3.53125 L 4.390625 -3.53125 L 4.390625 -2.921875 Z M 1.671875 -2.921875 "/></g></g><g style="fill:#00ffff;fill-opacity:1;"><g transform="translate(131.534549, 61.926805)"><path style="stroke:none" d="M 5.578125 0 L 4.796875 0 L 4.234375 -1.703125 L 1.59375 -1.703125 L 1.015625 0 L 0.25 0 L 2.40625 -6.203125 L 3.421875 -6.203125 Z M 2.859375 -5.453125 L 1.796875 -2.3125 L 4.015625 -2.3125 L 2.953125 -5.453125 Z M 2.859375 -5.453125 "/></g></g><g style="fill:#00ffff;fill-opacity:1;"><g transform="translate(140.647776, 61.926805)"><path style="stroke:none" d="M 2.9375 -6.203125 C 3.570312 -6.203125 4.113281 -6.085938 4.5625 -5.859375 C 5.007812 -5.640625 5.351562 -5.296875 5.59375 -4.828125 C 5.84375 -4.367188 5.96875 -3.789062 5.96875 -3.09375 C 5.96875 -2.40625 5.84375 -1.828125 5.59375 -1.359375 C 5.351562 -0.898438 5.007812 -0.554688 4.5625 -0.328125 C 4.113281 -0.109375 3.570312 0 2.9375 0 L 0.9375 0 L 0.9375 -6.203125 Z M 2.875 -0.625 C 3.382812 -0.625 3.8125 -0.703125 4.15625 -0.859375 C 4.5 -1.023438 4.753906 -1.289062 4.921875 -1.65625 C 5.097656 -2.019531 5.1875 -2.5 5.1875 -3.09375 C 5.1875 -3.707031 5.097656 -4.191406 4.921875 -4.546875 C 4.753906 -4.910156 4.5 -5.171875 4.15625 -5.328125 C 3.8125 -5.492188 3.382812 -5.578125 2.875 -5.578125 L 1.671875 -5.578125 L 1.671875 -0.625 Z M 2.875 -0.625 "/></g></g><g style="fill:#00ffff;fill-opacity:1;"><g transform="translate(150.523904, 61.926805)"><path style="stroke:none" d=""/></g></g><g style="fill:#00ffff;fill-opacity:1;"><g transform="translate(155.941303, 61.926805)"><path style="stroke:none" d="M 3.40625 0.09375 C 2.863281 0.09375 2.382812 -0.0195312 1.96875 -0.25 C 1.550781 -0.488281 1.222656 -0.84375 0.984375 -1.3125 C 0.742188 -1.789062 0.625 -2.382812 0.625 -3.09375 C 0.625 -3.8125 0.742188 -4.40625 0.984375 -4.875 C 1.222656 -5.351562 1.550781 -5.707031 1.96875 -5.9375 C 2.382812 -6.175781 2.863281 -6.296875 3.40625 -6.296875 C 3.9375 -6.296875 4.410156 -6.175781 4.828125 -5.9375 C 5.253906 -5.707031 5.585938 -5.351562 5.828125 -4.875 C 6.066406 -4.40625 6.1875 -3.8125 6.1875 -3.09375 C 6.1875 -2.382812 6.066406 -1.789062 5.828125 -1.3125 C 5.585938 -0.84375 5.253906 -0.488281 4.828125 -0.25 C 4.410156 -0.0195312 3.9375 0.09375 3.40625 0.09375 Z M 3.40625 -0.578125 C 4.050781 -0.578125 4.546875 -0.78125 4.890625 -1.1875 C 5.234375 -1.59375 5.40625 -2.226562 5.40625 -3.09375 C 5.40625 -3.96875 5.234375 -4.601562 4.890625 -5 C 4.546875 -5.40625 4.050781 -5.609375 3.40625 -5.609375 C 2.070312 -5.609375 1.40625 -4.769531 1.40625 -3.09375 C 1.40625 -1.414062 2.070312 -0.578125 3.40625 -0.578125 Z M 3.40625 -0.578125 "/></g></g><g style="fill:#00ffff;fill-opacity:1;"><g transform="translate(166.029348, 61.926805)"><path style="stroke:none" d="M 4.578125 -6.203125 L 4.578125 -5.59375 L 1.671875 -5.59375 L 1.671875 -3.34375 L 4.28125 -3.34375 L 4.28125 -2.734375 L 1.671875 -2.734375 L 1.671875 0 L 0.9375 0 L 0.9375 -6.203125 Z M 4.578125 -6.203125 "/></g></g><g style="fill:#00ffff;fill-opacity:1;"><g transform="translate(174.231333, 61.926805)"><path style="stroke:none" d=""/></g></g><g style="fill:#00ffff;fill-opacity:1;"><g transform="translate(179.648732, 61.926805)"><path style="stroke:none" d="M 3.03125 0 L 2.296875 0 L 2.296875 -2.4375 L 0.15625 -6.203125 L 0.953125 -6.203125 L 2.625 -3.296875 L 2.734375 -3.296875 L 4.390625 -6.203125 L 5.171875 -6.203125 L 3.03125 -2.4375 Z M 3.03125 0 "/></g></g><g style="fill:#00ffff;fill-opacity:1;"><g transform="translate(187.931246, 61.926805)"><path style="stroke:none" d="M 3.40625 0.09375 C 2.863281 0.09375 2.382812 -0.0195312 1.96875 -0.25 C 1.550781 -0.488281 1.222656 -0.84375 0.984375 -1.3125 C 0.742188 -1.789062 0.625 -2.382812 0.625 -3.09375 C 0.625 -3.8125 0.742188 -4.40625 0.984375 -4.875 C 1.222656 -5.351562 1.550781 -5.707031 1.96875 -5.9375 C 2.382812 -6.175781 2.863281 -6.296875 3.40625 -6.296875 C 3.9375 -6.296875 4.410156 -6.175781 4.828125 -5.9375 C 5.253906 -5.707031 5.585938 -5.351562 5.828125 -4.875 C 6.066406 -4.40625 6.1875 -3.8125 6.1875 -3.09375 C 6.1875 -2.382812 6.066406 -1.789062 5.828125 -1.3125 C 5.585938 -0.84375 5.253906 -0.488281 4.828125 -0.25 C 4.410156 -0.0195312 3.9375 0.09375 3.40625 0.09375 Z M 3.40625 -0.578125 C 4.050781 -0.578125 4.546875 -0.78125 4.890625 -1.1875 C 5.234375 -1.59375 5.40625 -2.226562 5.40625 -3.09375 C 5.40625 -3.96875 5.234375 -4.601562 4.890625 -5 C 4.546875 -5.40625 4.050781 -5.609375 3.40625 -5.609375 C 2.070312 -5.609375 1.40625 -4.769531 1.40625 -3.09375 C 1.40625 -1.414062 2.070312 -0.578125 3.40625 -0.578125 Z M 3.40625 -0.578125 "/></g></g><g style="fill:#00ffff;fill-opacity:1;"><g transform="translate(198.019291, 61.926805)"><path style="stroke:none" d="M 3.203125 0.09375 C 2.441406 0.09375 1.863281 -0.0976562 1.46875 -0.484375 C 1.082031 -0.867188 0.890625 -1.441406 0.890625 -2.203125 L 0.890625 -6.203125 L 1.609375 -6.203125 L 1.609375 -2.21875 C 1.609375 -1.675781 1.738281 -1.265625 2 -0.984375 C 2.257812 -0.710938 2.660156 -0.578125 3.203125 -0.578125 C 4.253906 -0.578125 4.78125 -1.125 4.78125 -2.21875 L 4.78125 -6.203125 L 5.515625 -6.203125 L 5.515625 -2.203125 C 5.515625 -1.441406 5.316406 -0.867188 4.921875 -0.484375 C 4.535156 -0.0976562 3.960938 0.09375 3.203125 0.09375 Z M 3.203125 0.09375 "/></g></g><g style="fill:#00ffff;fill-opacity:1;"><g transform="translate(207.696217, 61.926805)"><path style="stroke:none" d="M 0.9375 0 L 0.9375 -6.203125 L 3.1875 -6.203125 C 3.601562 -6.203125 3.953125 -6.132812 4.234375 -6 C 4.515625 -5.863281 4.726562 -5.671875 4.875 -5.421875 C 5.019531 -5.171875 5.09375 -4.875 5.09375 -4.53125 C 5.09375 -4.144531 4.992188 -3.828125 4.796875 -3.578125 C 4.609375 -3.328125 4.304688 -3.140625 3.890625 -3.015625 L 3.890625 -2.921875 C 4.097656 -2.835938 4.265625 -2.710938 4.390625 -2.546875 C 4.515625 -2.378906 4.632812 -2.128906 4.75 -1.796875 L 5.3125 0 L 4.5625 0 L 3.9375 -1.890625 C 3.863281 -2.117188 3.78125 -2.296875 3.6875 -2.421875 C 3.59375 -2.546875 3.472656 -2.632812 3.328125 -2.6875 C 3.179688 -2.75 2.992188 -2.78125 2.765625 -2.78125 L 1.671875 -2.78125 L 1.671875 0 Z M 3.171875 -3.40625 C 3.554688 -3.40625 3.84375 -3.492188 4.03125 -3.671875 C 4.226562 -3.847656 4.328125 -4.125 4.328125 -4.5 C 4.328125 -4.863281 4.226562 -5.132812 4.03125 -5.3125 C 3.84375 -5.488281 3.554688 -5.578125 3.171875 -5.578125 L 1.671875 -5.578125 L 1.671875 -3.40625 Z M 3.171875 -3.40625 "/></g></g><g style="fill:#00ffff;fill-opacity:1;"><g transform="translate(216.724678, 61.926805)"><path style="stroke:none" d=""/></g></g><g style="fill:#00ffff;fill-opacity:1;"><g transform="translate(222.142077, 61.926805)"><path style="stroke:none" d="M 4.890625 -3.6875 L 4.890625 -6.203125 L 5.609375 -6.203125 L 5.609375 0 L 4.890625 0 L 4.890625 -3.0625 L 1.671875 -3.0625 L 1.671875 0 L 0.9375 0 L 0.9375 -6.203125 L 1.671875 -6.203125 L 1.671875 -3.6875 Z M 4.890625 -3.6875 "/></g></g><g style="fill:#00ffff;fill-opacity:1;"><g transform="translate(231.984298, 61.926805)"><path style="stroke:none" d="M 1.671875 -2.921875 L 1.671875 -0.609375 L 4.828125 -0.609375 L 4.828125 0 L 0.9375 0 L 0.9375 -6.203125 L 4.765625 -6.203125 L 4.765625 -5.59375 L 1.671875 -5.59375 L 1.671875 -3.53125 L 4.390625 -3.53125 L 4.390625 -2.921875 Z M 1.671875 -2.921875 "/></g></g><g style="fill:#00ffff;fill-opacity:1;"><g transform="translate(240.508397, 61.926805)"><path style="stroke:none" d="M 5.578125 0 L 4.796875 0 L 4.234375 -1.703125 L 1.59375 -1.703125 L 1.015625 0 L 0.25 0 L 2.40625 -6.203125 L 3.421875 -6.203125 Z M 2.859375 -5.453125 L 1.796875 -2.3125 L 4.015625 -2.3125 L 2.953125 -5.453125 Z M 2.859375 -5.453125 "/></g></g><g style="fill:#00ffff;fill-opacity:1;"><g transform="translate(249.621625, 61.926805)"><path style="stroke:none" d="M 1.671875 -6.203125 L 1.671875 -0.609375 L 4.65625 -0.609375 L 4.65625 0 L 0.9375 0 L 0.9375 -6.203125 Z M 1.671875 -6.203125 "/></g></g><g style="fill:#00ffff;fill-opacity:1;"><g transform="translate(256.920856, 61.926805)"><path style="stroke:none" d="M 4.84375 -6.203125 L 4.84375 -5.578125 L 2.890625 -5.578125 L 2.890625 0 L 2.171875 0 L 2.171875 -5.578125 L 0.234375 -5.578125 L 0.234375 -6.203125 Z M 4.84375 -6.203125 "/></g></g><g style="fill:#00ffff;fill-opacity:1;"><g transform="translate(265.271172, 61.926805)"><path style="stroke:none" d="M 4.890625 -3.6875 L 4.890625 -6.203125 L 5.609375 -6.203125 L 5.609375 0 L 4.890625 0 L 4.890625 -3.0625 L 1.671875 -3.0625 L 1.671875 0 L 0.9375 0 L 0.9375 -6.203125 L 1.671875 -6.203125 L 1.671875 -3.6875 Z M 4.890625 -3.6875 "/></g></g><g style="fill:#000000;fill-opacity:1;"><g transform="translate(65.221032, 61.926805)"><path style="stroke:none" d="M 2.703125 0.09375 C 2.316406 0.09375 1.96875 0.0390625 1.65625 -0.0625 C 1.351562 -0.175781 1.097656 -0.316406 0.890625 -0.484375 C 0.679688 -0.660156 0.523438 -0.851562 0.421875 -1.0625 L 0.828125 -1.546875 L 0.921875 -1.546875 C 1.304688 -0.890625 1.898438 -0.5625 2.703125 -0.5625 C 3.171875 -0.5625 3.519531 -0.660156 3.75 -0.859375 C 3.976562 -1.054688 4.09375 -1.328125 4.09375 -1.671875 C 4.09375 -1.878906 4.054688 -2.050781 3.984375 -2.1875 C 3.910156 -2.332031 3.785156 -2.453125 3.609375 -2.546875 C 3.429688 -2.648438 3.195312 -2.738281 2.90625 -2.8125 L 2.1875 -3 C 1.644531 -3.125 1.242188 -3.328125 0.984375 -3.609375 C 0.734375 -3.898438 0.609375 -4.265625 0.609375 -4.703125 C 0.609375 -5.003906 0.6875 -5.273438 0.84375 -5.515625 C 1 -5.765625 1.226562 -5.957031 1.53125 -6.09375 C 1.84375 -6.226562 2.207031 -6.296875 2.625 -6.296875 C 3.09375 -6.296875 3.488281 -6.226562 3.8125 -6.09375 C 4.132812 -5.957031 4.390625 -5.757812 4.578125 -5.5 L 4.21875 -5.015625 L 4.125 -5.015625 C 3.945312 -5.234375 3.734375 -5.394531 3.484375 -5.5 C 3.242188 -5.601562 2.957031 -5.65625 2.625 -5.65625 C 2.195312 -5.65625 1.875 -5.570312 1.65625 -5.40625 C 1.4375 -5.238281 1.328125 -5.007812 1.328125 -4.71875 C 1.328125 -4.4375 1.40625 -4.210938 1.5625 -4.046875 C 1.726562 -3.878906 2.003906 -3.75 2.390625 -3.65625 L 3.125 -3.484375 C 3.726562 -3.335938 4.164062 -3.117188 4.4375 -2.828125 C 4.707031 -2.535156 4.84375 -2.160156 4.84375 -1.703125 C 4.84375 -1.359375 4.765625 -1.050781 4.609375 -0.78125 C 4.453125 -0.507812 4.210938 -0.296875 3.890625 -0.140625 C 3.566406 0.015625 3.171875 0.09375 2.703125 0.09375 Z M 2.703125 0.09375 "/></g></g><g style="fill:#000000;fill-opacity:1;"><g transform="translate(73.74937, 61.926805)"><path style="stroke:none" d="M 4.84375 -6.203125 L 4.84375 -5.578125 L 2.890625 -5.578125 L 2.890625 0 L 2.171875 0 L 2.171875 -5.578125 L 0.234375 -5.578125 L 0.234375 -6.203125 Z M 4.84375 -6.203125 "/></g></g><g style="fill:#000000;fill-opacity:1;"><g transform="translate(81.548713, 61.926805)"><path style="stroke:none" d="M 5.578125 0 L 4.796875 0 L 4.234375 -1.703125 L 1.59375 -1.703125 L 1.015625 0 L 0.25 0 L 2.40625 -6.203125 L 3.421875 -6.203125 Z M 2.859375 -5.453125 L 1.796875 -2.3125 L 4.015625 -2.3125 L 2.953125 -5.453125 Z M 2.859375 -5.453125 "/></g></g><g style="fill:#000000;fill-opacity:1;"><g transform="translate(90.183009, 61.926805)"><path style="stroke:none" d="M 3.03125 0 L 2.296875 0 L 2.296875 -2.4375 L 0.15625 -6.203125 L 0.953125 -6.203125 L 2.625 -3.296875 L 2.734375 -3.296875 L 4.390625 -6.203125 L 5.171875 -6.203125 L 3.03125 -2.4375 Z M 3.03125 0 "/></g></g><g style="fill:#000000;fill-opacity:1;"><g transform="translate(98.800351, 61.926805)"><path style="stroke:none" d=""/></g></g><g style="fill:#000000;fill-opacity:1;"><g transform="translate(104.21775, 61.926805)"><path style="stroke:none" d="M 5.578125 0 L 4.796875 0 L 4.234375 -1.703125 L 1.59375 -1.703125 L 1.015625 0 L 0.25 0 L 2.40625 -6.203125 L 3.421875 -6.203125 Z M 2.859375 -5.453125 L 1.796875 -2.3125 L 4.015625 -2.3125 L 2.953125 -5.453125 Z M 2.859375 -5.453125 "/></g></g><g style="fill:#000000;fill-opacity:1;"><g transform="translate(113.330978, 61.926805)"><path style="stroke:none" d="M 4.890625 -3.6875 L 4.890625 -6.203125 L 5.609375 -6.203125 L 5.609375 0 L 4.890625 0 L 4.890625 -3.0625 L 1.671875 -3.0625 L 1.671875 0 L 0.9375 0 L 0.9375 -6.203125 L 1.671875 -6.203125 L 1.671875 -3.6875 Z M 4.890625 -3.6875 "/></g></g><g style="fill:#000000;fill-opacity:1;"><g transform="translate(123.173199, 61.926805)"><path style="stroke:none" d="M 1.671875 -2.921875 L 1.671875 -0.609375 L 4.828125 -0.609375 L 4.828125 0 L 0.9375 0 L 0.9375 -6.203125 L 4.765625 -6.203125 L 4.765625 -5.59375 L 1.671875 -5.59375 L 1.671875 -3.53125 L 4.390625 -3.53125 L 4.390625 -2.921875 Z M 1.671875 -2.921875 "/></g></g><g style="fill:#000000;fill-opacity:1;"><g transform="translate(131.697298, 61.926805)"><path style="stroke:none" d="M 5.578125 0 L 4.796875 0 L 4.234375 -1.703125 L 1.59375 -1.703125 L 1.015625 0 L 0.25 0 L 2.40625 -6.203125 L 3.421875 -6.203125 Z M 2.859375 -5.453125 L 1.796875 -2.3125 L 4.015625 -2.3125 L 2.953125 -5.453125 Z M 2.859375 -5.453125 "/></g></g><g style="fill:#000000;fill-opacity:1;"><g transform="translate(140.810526, 61.926805)"><path style="stroke:none" d="M 2.9375 -6.203125 C 3.570312 -6.203125 4.113281 -6.085938 4.5625 -5.859375 C 5.007812 -5.640625 5.351562 -5.296875 5.59375 -4.828125 C 5.84375 -4.367188 5.96875 -3.789062 5.96875 -3.09375 C 5.96875 -2.40625 5.84375 -1.828125 5.59375 -1.359375 C 5.351562 -0.898438 5.007812 -0.554688 4.5625 -0.328125 C 4.113281 -0.109375 3.570312 0 2.9375 0 L 0.9375 0 L 0.9375 -6.203125 Z M 2.875 -0.625 C 3.382812 -0.625 3.8125 -0.703125 4.15625 -0.859375 C 4.5 -1.023438 4.753906 -1.289062 4.921875 -1.65625 C 5.097656 -2.019531 5.1875 -2.5 5.1875 -3.09375 C 5.1875 -3.707031 5.097656 -4.191406 4.921875 -4.546875 C 4.753906 -4.910156 4.5 -5.171875 4.15625 -5.328125 C 3.8125 -5.492188 3.382812 -5.578125 2.875 -5.578125 L 1.671875 -5.578125 L 1.671875 -0.625 Z M 2.875 -0.625 "/></g></g><g style="fill:#000000;fill-opacity:1;"><g transform="translate(150.686654, 61.926805)"><path style="stroke:none" d=""/></g></g><g style="fill:#000000;fill-opacity:1;"><g transform="translate(156.104053, 61.926805)"><path style="stroke:none" d="M 3.40625 0.09375 C 2.863281 0.09375 2.382812 -0.0195312 1.96875 -0.25 C 1.550781 -0.488281 1.222656 -0.84375 0.984375 -1.3125 C 0.742188 -1.789062 0.625 -2.382812 0.625 -3.09375 C 0.625 -3.8125 0.742188 -4.40625 0.984375 -4.875 C 1.222656 -5.351562 1.550781 -5.707031 1.96875 -5.9375 C 2.382812 -6.175781 2.863281 -6.296875 3.40625 -6.296875 C 3.9375 -6.296875 4.410156 -6.175781 4.828125 -5.9375 C 5.253906 -5.707031 5.585938 -5.351562 5.828125 -4.875 C 6.066406 -4.40625 6.1875 -3.8125 6.1875 -3.09375 C 6.1875 -2.382812 6.066406 -1.789062 5.828125 -1.3125 C 5.585938 -0.84375 5.253906 -0.488281 4.828125 -0.25 C 4.410156 -0.0195312 3.9375 0.09375 3.40625 0.09375 Z M 3.40625 -0.578125 C 4.050781 -0.578125 4.546875 -0.78125 4.890625 -1.1875 C 5.234375 -1.59375 5.40625 -2.226562 5.40625 -3.09375 C 5.40625 -3.96875 5.234375 -4.601562 4.890625 -5 C 4.546875 -5.40625 4.050781 -5.609375 3.40625 -5.609375 C 2.070312 -5.609375 1.40625 -4.769531 1.40625 -3.09375 C 1.40625 -1.414062 2.070312 -0.578125 3.40625 -0.578125 Z M 3.40625 -0.578125 "/></g></g><g style="fill:#000000;fill-opacity:1;"><g transform="translate(166.192097, 61.926805)"><path style="stroke:none" d="M 4.578125 -6.203125 L 4.578125 -5.59375 L 1.671875 -5.59375 L 1.671875 -3.34375 L 4.28125 -3.34375 L 4.28125 -2.734375 L 1.671875 -2.734375 L 1.671875 0 L 0.9375 0 L 0.9375 -6.203125 Z M 4.578125 -6.203125 "/></g></g><g style="fill:#000000;fill-opacity:1;"><g transform="translate(174.394083, 61.926805)"><path style="stroke:none" d=""/></g></g><g style="fill:#000000;fill-opacity:1;"><g transform="translate(179.811482, 61.926805)"><path style="stroke:none" d="M 3.03125 0 L 2.296875 0 L 2.296875 -2.4375 L 0.15625 -6.203125 L 0.953125 -6.203125 L 2.625 -3.296875 L 2.734375 -3.296875 L 4.390625 -6.203125 L 5.171875 -6.203125 L 3.03125 -2.4375 Z M 3.03125 0 "/></g></g><g style="fill:#000000;fill-opacity:1;"><g transform="translate(188.093996, 61.926805)"><path style="stroke:none" d="M 3.40625 0.09375 C 2.863281 0.09375 2.382812 -0.0195312 1.96875 -0.25 C 1.550781 -0.488281 1.222656 -0.84375 0.984375 -1.3125 C 0.742188 -1.789062 0.625 -2.382812 0.625 -3.09375 C 0.625 -3.8125 0.742188 -4.40625 0.984375 -4.875 C 1.222656 -5.351562 1.550781 -5.707031 1.96875 -5.9375 C 2.382812 -6.175781 2.863281 -6.296875 3.40625 -6.296875 C 3.9375 -6.296875 4.410156 -6.175781 4.828125 -5.9375 C 5.253906 -5.707031 5.585938 -5.351562 5.828125 -4.875 C 6.066406 -4.40625 6.1875 -3.8125 6.1875 -3.09375 C 6.1875 -2.382812 6.066406 -1.789062 5.828125 -1.3125 C 5.585938 -0.84375 5.253906 -0.488281 4.828125 -0.25 C 4.410156 -0.0195312 3.9375 0.09375 3.40625 0.09375 Z M 3.40625 -0.578125 C 4.050781 -0.578125 4.546875 -0.78125 4.890625 -1.1875 C 5.234375 -1.59375 5.40625 -2.226562 5.40625 -3.09375 C 5.40625 -3.96875 5.234375 -4.601562 4.890625 -5 C 4.546875 -5.40625 4.050781 -5.609375 3.40625 -5.609375 C 2.070312 -5.609375 1.40625 -4.769531 1.40625 -3.09375 C 1.40625 -1.414062 2.070312 -0.578125 3.40625 -0.578125 Z M 3.40625 -0.578125 "/></g></g><g style="fill:#000000;fill-opacity:1;"><g transform="translate(198.18204, 61.926805)"><path style="stroke:none" d="M 3.203125 0.09375 C 2.441406 0.09375 1.863281 -0.0976562 1.46875 -0.484375 C 1.082031 -0.867188 0.890625 -1.441406 0.890625 -2.203125 L 0.890625 -6.203125 L 1.609375 -6.203125 L 1.609375 -2.21875 C 1.609375 -1.675781 1.738281 -1.265625 2 -0.984375 C 2.257812 -0.710938 2.660156 -0.578125 3.203125 -0.578125 C 4.253906 -0.578125 4.78125 -1.125 4.78125 -2.21875 L 4.78125 -6.203125 L 5.515625 -6.203125 L 5.515625 -2.203125 C 5.515625 -1.441406 5.316406 -0.867188 4.921875 -0.484375 C 4.535156 -0.0976562 3.960938 0.09375 3.203125 0.09375 Z M 3.203125 0.09375 "/></g></g><g style="fill:#000000;fill-opacity:1;"><g transform="translate(207.858967, 61.926805)"><path style="stroke:none" d="M 0.9375 0 L 0.9375 -6.203125 L 3.1875 -6.203125 C 3.601562 -6.203125 3.953125 -6.132812 4.234375 -6 C 4.515625 -5.863281 4.726562 -5.671875 4.875 -5.421875 C 5.019531 -5.171875 5.09375 -4.875 5.09375 -4.53125 C 5.09375 -4.144531 4.992188 -3.828125 4.796875 -3.578125 C 4.609375 -3.328125 4.304688 -3.140625 3.890625 -3.015625 L 3.890625 -2.921875 C 4.097656 -2.835938 4.265625 -2.710938 4.390625 -2.546875 C 4.515625 -2.378906 4.632812 -2.128906 4.75 -1.796875 L 5.3125 0 L 4.5625 0 L 3.9375 -1.890625 C 3.863281 -2.117188 3.78125 -2.296875 3.6875 -2.421875 C 3.59375 -2.546875 3.472656 -2.632812 3.328125 -2.6875 C 3.179688 -2.75 2.992188 -2.78125 2.765625 -2.78125 L 1.671875 -2.78125 L 1.671875 0 Z M 3.171875 -3.40625 C 3.554688 -3.40625 3.84375 -3.492188 4.03125 -3.671875 C 4.226562 -3.847656 4.328125 -4.125 4.328125 -4.5 C 4.328125 -4.863281 4.226562 -5.132812 4.03125 -5.3125 C 3.84375 -5.488281 3.554688 -5.578125 3.171875 -5.578125 L 1.671875 -5.578125 L 1.671875 -3.40625 Z M 3.171875 -3.40625 "/></g></g><g style="fill:#000000;fill-opacity:1;"><g transform="translate(216.887428, 61.926805)"><path style="stroke:none" d=""/></g></g><g style="fill:#000000;fill-opacity:1;"><g transform="translate(222.304826, 61.926805)"><path style="stroke:none" d="M 4.890625 -3.6875 L 4.890625 -6.203125 L 5.609375 -6.203125 L 5.609375 0 L 4.890625 0 L 4.890625 -3.0625 L 1.671875 -3.0625 L 1.671875 0 L 0.9375 0 L 0.9375 -6.203125 L 1.671875 -6.203125 L 1.671875 -3.6875 Z M 4.890625 -3.6875 "/></g></g><g style="fill:#000000;fill-opacity:1;"><g transform="translate(232.147048, 61.926805)"><path style="stroke:none" d="M 1.671875 -2.921875 L 1.671875 -0.609375 L 4.828125 -0.609375 L 4.828125 0 L 0.9375 0 L 0.9375 -6.203125 L 4.765625 -6.203125 L 4.765625 -5.59375 L 1.671875 -5.59375 L 1.671875 -3.53125 L 4.390625 -3.53125 L 4.390625 -2.921875 Z M 1.671875 -2.921875 "/></g></g><g style="fill:#000000;fill-opacity:1;"><g transform="translate(240.671147, 61.926805)"><path style="stroke:none" d="M 5.578125 0 L 4.796875 0 L 4.234375 -1.703125 L 1.59375 -1.703125 L 1.015625 0 L 0.25 0 L 2.40625 -6.203125 L 3.421875 -6.203125 Z M 2.859375 -5.453125 L 1.796875 -2.3125 L 4.015625 -2.3125 L 2.953125 -5.453125 Z M 2.859375 -5.453125 "/></g></g><g style="fill:#000000;fill-opacity:1;"><g transform="translate(249.784374, 61.926805)"><path style="stroke:none" d="M 1.671875 -6.203125 L 1.671875 -0.609375 L 4.65625 -0.609375 L 4.65625 0 L 0.9375 0 L 0.9375 -6.203125 Z M 1.671875 -6.203125 "/></g></g><g style="fill:#000000;fill-opacity:1;"><g transform="translate(257.083605, 61.926805)"><path style="stroke:none" d="M 4.84375 -6.203125 L 4.84375 -5.578125 L 2.890625 -5.578125 L 2.890625 0 L 2.171875 0 L 2.171875 -5.578125 L 0.234375 -5.578125 L 0.234375 -6.203125 Z M 4.84375 -6.203125 "/></g></g><g style="fill:#000000;fill-opacity:1;"><g transform="translate(265.433922, 61.926805)"><path style="stroke:none" d="M 4.890625 -3.6875 L 4.890625 -6.203125 L 5.609375 -6.203125 L 5.609375 0 L 4.890625 0 L 4.890625 -3.0625 L 1.671875 -3.0625 L 1.671875 0 L 0.9375 0 L 0.9375 -6.203125 L 1.671875 -6.203125 L 1.671875 -3.6875 Z M 4.890625 -3.6875 "/></g></g><path style=" stroke:none;fill-rule:nonzero;fill:#e3a72f;fill-opacity:1;" d="M 60.683594 0.0117188 L 60.683594 14.652344 C 53.480469 17.113281 47.121094 21.402344 42.160156 26.972656 L 42.160156 0.0117188 L 60.683594 0.0117188 "/><path style=" stroke:none;fill-rule:nonzero;fill:#e3a72f;fill-opacity:1;" d="M 30.6875 46.054688 L 32.207031 46.054688 C 33.910156 38.84375 37.390625 32.320312 42.160156 26.972656 L 29.683594 26.972656 C 32.359375 29.488281 34.03125 33.066406 34.03125 37.039062 C 34.03125 40.484375 32.769531 43.636719 30.6875 46.054688 "/><g clip-rule="nonzero" clip-path="url(#1ef4452632)"><path style=" stroke:none;fill-rule:nonzero;fill:#3084b5;fill-opacity:1;" d="M 20.257812 47.304688 C 14.609375 47.304688 10.015625 42.699219 10.015625 37.039062 C 10.015625 31.375 14.609375 26.769531 20.257812 26.769531 C 25.902344 26.769531 30.5 31.375 30.5 37.039062 C 30.5 42.699219 25.902344 47.304688 20.257812 47.304688 Z M 46.414062 125.660156 C 51.03125 123.605469 54.234375 120.183594 55.683594 115.761719 C 57.335938 110.730469 56.824219 105.152344 54.253906 100.046875 C 52.960938 97.488281 51.316406 95.132812 49.605469 92.746094 C 47.933594 90.417969 46.140625 88.039062 44.273438 85.679688 C 44.203125 85.589844 44.121094 85.519531 44.03125 85.46875 C 39.273438 78.335938 36.761719 70.019531 36.761719 61.402344 C 36.761719 56.324219 37.628906 51.355469 39.339844 46.625 L 41.589844 46.625 L 41.589844 73.585938 L 61.25 73.585938 L 61.25 46.625 L 89.558594 46.625 L 89.558594 26.402344 L 61.25 26.402344 L 61.25 22.335938 C 67.121094 19.496094 73.425781 18.058594 80 18.058594 C 90.21875 18.058594 100.132812 21.695312 107.917969 28.304688 L 108.722656 27.503906 C 108.332031 27.035156 107.914062 26.5625 107.480469 26.09375 L 107.449219 26.058594 C 99.238281 18.492188 88.574219 14.324219 77.417969 14.324219 C 71.542969 14.324219 65.839844 15.457031 60.464844 17.6875 C 54.460938 20.175781 48.96875 24.050781 44.578125 28.890625 C 40.164062 33.753906 36.832031 39.632812 34.941406 45.890625 C 33.679688 50.0625 33.039062 54.40625 33.039062 58.816406 C 33.039062 69.527344 36.890625 79.875 43.886719 87.957031 C 45.714844 90.300781 47.4375 92.625 49.011719 94.859375 C 50.855469 97.46875 52.296875 99.710938 53.363281 102.164062 C 55.761719 107.683594 55.402344 114.1875 52.449219 118.742188 C 50.308594 122.039062 46.152344 124.554688 41.324219 125.476562 C 36.90625 126.316406 31.664062 125.921875 26.9375 124.394531 C 16.289062 120.949219 10.289062 110.023438 7.660156 103.820312 C 3.660156 94.382812 2.132812 83.5 3.238281 72.351562 C 3.96875 64.996094 6.410156 54.769531 13.855469 47.59375 C 15.722656 48.738281 17.914062 49.398438 20.257812 49.398438 C 27.054688 49.398438 32.585938 43.851562 32.585938 37.039062 C 32.585938 30.222656 27.054688 24.679688 20.257812 24.679688 C 13.457031 24.679688 7.925781 30.222656 7.925781 37.039062 C 7.925781 40.878906 9.683594 44.316406 12.4375 46.585938 C 11.691406 47.316406 10.992188 48.070312 10.359375 48.828125 C 4.828125 55.453125 1.683594 64.945312 1.265625 76.277344 C 0.816406 88.378906 3.261719 99.753906 8.332031 109.175781 C 10.964844 114.0625 14.15625 118.109375 17.820312 121.207031 C 21.648438 124.441406 26.296875 126.457031 31.628906 127.203125 C 37.34375 128 42.320312 127.480469 46.414062 125.660156 "/></g><path style=" stroke:none;fill-rule:nonzero;fill:#e3a72f;fill-opacity:1;" d="M 20.257812 44.910156 C 24.59375 44.910156 28.109375 41.386719 28.109375 37.039062 C 28.109375 32.691406 24.59375 29.164062 20.257812 29.164062 C 15.917969 29.164062 12.402344 32.691406 12.402344 37.039062 C 12.402344 41.386719 15.917969 44.910156 20.257812 44.910156 "/></g></svg>